<mxfile host="Electron" agent="Mozilla/5.0 (Windows NT 10.0; Win64; x64) AppleWebKit/537.36 (KHTML, like Gecko) draw.io/28.0.6 Chrome/138.0.7204.100 Electron/37.2.3 Safari/537.36" version="28.0.6">
  <diagram name="Page-1" id="1cYjq9leyXMX_tGkDyqa">
    <mxGraphModel dx="1042" dy="1822" grid="1" gridSize="10" guides="1" tooltips="1" connect="1" arrows="1" fold="1" page="1" pageScale="1" pageWidth="850" pageHeight="1100" math="0" shadow="0">
      <root>
        <mxCell id="0" />
        <mxCell id="1" parent="0" />
        <mxCell id="01UZy1xviZBcJ6pQUZVD-43" style="edgeStyle=orthogonalEdgeStyle;rounded=0;orthogonalLoop=1;jettySize=auto;html=1;entryX=0.5;entryY=0;entryDx=0;entryDy=0;" edge="1" parent="1" source="01UZy1xviZBcJ6pQUZVD-1" target="01UZy1xviZBcJ6pQUZVD-3">
          <mxGeometry relative="1" as="geometry" />
        </mxCell>
        <mxCell id="01UZy1xviZBcJ6pQUZVD-1" value="start" style="strokeWidth=2;html=1;shape=mxgraph.flowchart.terminator;whiteSpace=wrap;" vertex="1" parent="1">
          <mxGeometry x="90" width="100" height="60" as="geometry" />
        </mxCell>
        <mxCell id="01UZy1xviZBcJ6pQUZVD-11" style="edgeStyle=orthogonalEdgeStyle;rounded=0;orthogonalLoop=1;jettySize=auto;html=1;entryX=0.5;entryY=0;entryDx=0;entryDy=0;" edge="1" parent="1" source="01UZy1xviZBcJ6pQUZVD-2" target="01UZy1xviZBcJ6pQUZVD-7">
          <mxGeometry relative="1" as="geometry" />
        </mxCell>
        <mxCell id="01UZy1xviZBcJ6pQUZVD-2" value="input yearsWorkRemain" style="shape=parallelogram;perimeter=parallelogramPerimeter;whiteSpace=wrap;html=1;fixedSize=1;" vertex="1" parent="1">
          <mxGeometry x="400" y="100" width="180" height="30" as="geometry" />
        </mxCell>
        <mxCell id="01UZy1xviZBcJ6pQUZVD-44" style="edgeStyle=orthogonalEdgeStyle;rounded=0;orthogonalLoop=1;jettySize=auto;html=1;entryX=0.5;entryY=0;entryDx=0;entryDy=0;" edge="1" parent="1" source="01UZy1xviZBcJ6pQUZVD-3" target="01UZy1xviZBcJ6pQUZVD-5">
          <mxGeometry relative="1" as="geometry" />
        </mxCell>
        <mxCell id="01UZy1xviZBcJ6pQUZVD-3" value="Declarations&lt;div&gt;&amp;nbsp; &amp;nbsp;num yearsWorkRemain&lt;/div&gt;&lt;div&gt;&amp;nbsp; &amp;nbsp;num annualSavings&lt;/div&gt;&lt;div&gt;&amp;nbsp; &amp;nbsp;num simpleInterest = 0.03&lt;/div&gt;&lt;div&gt;&amp;nbsp; &amp;nbsp;num yearsRetired = 0&lt;/div&gt;&lt;div&gt;&amp;nbsp; &amp;nbsp;num savingsAtRetire&lt;/div&gt;&lt;div&gt;&amp;nbsp; &amp;nbsp;num annualRetireCost = 60000&lt;/div&gt;&lt;div&gt;&amp;nbsp; &amp;nbsp;num yearCount = 30&lt;/div&gt;" style="rounded=0;whiteSpace=wrap;html=1;align=left;" vertex="1" parent="1">
          <mxGeometry x="45" y="95" width="190" height="140" as="geometry" />
        </mxCell>
        <mxCell id="01UZy1xviZBcJ6pQUZVD-46" style="edgeStyle=orthogonalEdgeStyle;rounded=0;orthogonalLoop=1;jettySize=auto;html=1;entryX=0.5;entryY=0;entryDx=0;entryDy=0;" edge="1" parent="1" source="01UZy1xviZBcJ6pQUZVD-4" target="01UZy1xviZBcJ6pQUZVD-16">
          <mxGeometry relative="1" as="geometry" />
        </mxCell>
        <mxCell id="01UZy1xviZBcJ6pQUZVD-4" value="housekeeping()" style="rounded=0;whiteSpace=wrap;html=1;" vertex="1" parent="1">
          <mxGeometry x="80" y="280" width="120" height="60" as="geometry" />
        </mxCell>
        <mxCell id="01UZy1xviZBcJ6pQUZVD-5" value="" style="rounded=0;whiteSpace=wrap;html=1;" vertex="1" parent="1">
          <mxGeometry x="80" y="270" width="120" height="10" as="geometry" />
        </mxCell>
        <mxCell id="01UZy1xviZBcJ6pQUZVD-6" value="output savingsAtRetire" style="shape=parallelogram;perimeter=parallelogramPerimeter;whiteSpace=wrap;html=1;fixedSize=1;" vertex="1" parent="1">
          <mxGeometry x="405" y="280" width="170" height="30" as="geometry" />
        </mxCell>
        <mxCell id="01UZy1xviZBcJ6pQUZVD-12" style="edgeStyle=orthogonalEdgeStyle;rounded=0;orthogonalLoop=1;jettySize=auto;html=1;entryX=0.5;entryY=0;entryDx=0;entryDy=0;" edge="1" parent="1" source="01UZy1xviZBcJ6pQUZVD-7" target="01UZy1xviZBcJ6pQUZVD-9">
          <mxGeometry relative="1" as="geometry" />
        </mxCell>
        <mxCell id="01UZy1xviZBcJ6pQUZVD-7" value="input annualSavings" style="shape=parallelogram;perimeter=parallelogramPerimeter;whiteSpace=wrap;html=1;fixedSize=1;" vertex="1" parent="1">
          <mxGeometry x="415" y="150" width="150" height="30" as="geometry" />
        </mxCell>
        <mxCell id="01UZy1xviZBcJ6pQUZVD-10" style="edgeStyle=orthogonalEdgeStyle;rounded=0;orthogonalLoop=1;jettySize=auto;html=1;entryX=0.5;entryY=0;entryDx=0;entryDy=0;" edge="1" parent="1" source="01UZy1xviZBcJ6pQUZVD-8" target="01UZy1xviZBcJ6pQUZVD-2">
          <mxGeometry relative="1" as="geometry" />
        </mxCell>
        <mxCell id="01UZy1xviZBcJ6pQUZVD-8" value="housekeeping()" style="strokeWidth=2;html=1;shape=mxgraph.flowchart.terminator;whiteSpace=wrap;" vertex="1" parent="1">
          <mxGeometry x="440" y="20" width="100" height="60" as="geometry" />
        </mxCell>
        <mxCell id="01UZy1xviZBcJ6pQUZVD-13" style="edgeStyle=orthogonalEdgeStyle;rounded=0;orthogonalLoop=1;jettySize=auto;html=1;entryX=0.5;entryY=0;entryDx=0;entryDy=0;" edge="1" parent="1" source="01UZy1xviZBcJ6pQUZVD-9" target="01UZy1xviZBcJ6pQUZVD-6">
          <mxGeometry relative="1" as="geometry" />
        </mxCell>
        <mxCell id="01UZy1xviZBcJ6pQUZVD-9" value="savingsAtRetire = yearsWorkRemain * (annualSavings * 0.03)" style="rounded=0;whiteSpace=wrap;html=1;" vertex="1" parent="1">
          <mxGeometry x="415" y="200" width="150" height="60" as="geometry" />
        </mxCell>
        <mxCell id="01UZy1xviZBcJ6pQUZVD-14" value="return" style="strokeWidth=2;html=1;shape=mxgraph.flowchart.terminator;whiteSpace=wrap;" vertex="1" parent="1">
          <mxGeometry x="440" y="330" width="100" height="60" as="geometry" />
        </mxCell>
        <mxCell id="01UZy1xviZBcJ6pQUZVD-15" style="edgeStyle=orthogonalEdgeStyle;rounded=0;orthogonalLoop=1;jettySize=auto;html=1;entryX=0.5;entryY=0;entryDx=0;entryDy=0;entryPerimeter=0;" edge="1" parent="1" source="01UZy1xviZBcJ6pQUZVD-6" target="01UZy1xviZBcJ6pQUZVD-14">
          <mxGeometry relative="1" as="geometry" />
        </mxCell>
        <mxCell id="01UZy1xviZBcJ6pQUZVD-42" style="edgeStyle=orthogonalEdgeStyle;rounded=0;orthogonalLoop=1;jettySize=auto;html=1;entryX=0;entryY=0.5;entryDx=0;entryDy=0;" edge="1" parent="1" source="01UZy1xviZBcJ6pQUZVD-16" target="01UZy1xviZBcJ6pQUZVD-19">
          <mxGeometry relative="1" as="geometry" />
        </mxCell>
        <mxCell id="01UZy1xviZBcJ6pQUZVD-61" style="edgeStyle=orthogonalEdgeStyle;rounded=0;orthogonalLoop=1;jettySize=auto;html=1;entryX=0.5;entryY=0;entryDx=0;entryDy=0;" edge="1" parent="1" source="01UZy1xviZBcJ6pQUZVD-16" target="01UZy1xviZBcJ6pQUZVD-59">
          <mxGeometry relative="1" as="geometry" />
        </mxCell>
        <mxCell id="01UZy1xviZBcJ6pQUZVD-16" value="savingsAtRetire&lt;div&gt;&amp;nbsp;&amp;gt; 0?&lt;/div&gt;" style="rhombus;whiteSpace=wrap;html=1;" vertex="1" parent="1">
          <mxGeometry x="80" y="395" width="120" height="120" as="geometry" />
        </mxCell>
        <mxCell id="01UZy1xviZBcJ6pQUZVD-17" value="output &quot;Go back to work!&quot;" style="shape=parallelogram;perimeter=parallelogramPerimeter;whiteSpace=wrap;html=1;fixedSize=1;" vertex="1" parent="1">
          <mxGeometry x="375" y="650" width="180" height="30" as="geometry" />
        </mxCell>
        <mxCell id="01UZy1xviZBcJ6pQUZVD-18" value="" style="rounded=0;whiteSpace=wrap;html=1;" vertex="1" parent="1">
          <mxGeometry x="235" y="415" width="120" height="10" as="geometry" />
        </mxCell>
        <mxCell id="01UZy1xviZBcJ6pQUZVD-51" style="edgeStyle=orthogonalEdgeStyle;rounded=0;orthogonalLoop=1;jettySize=auto;html=1;entryX=0.5;entryY=0;entryDx=0;entryDy=0;" edge="1" parent="1" source="01UZy1xviZBcJ6pQUZVD-19" target="01UZy1xviZBcJ6pQUZVD-47">
          <mxGeometry relative="1" as="geometry" />
        </mxCell>
        <mxCell id="01UZy1xviZBcJ6pQUZVD-19" value="retireODT()" style="rounded=0;whiteSpace=wrap;html=1;" vertex="1" parent="1">
          <mxGeometry x="235" y="425" width="120" height="60" as="geometry" />
        </mxCell>
        <mxCell id="01UZy1xviZBcJ6pQUZVD-27" style="edgeStyle=orthogonalEdgeStyle;rounded=0;orthogonalLoop=1;jettySize=auto;html=1;entryX=0.5;entryY=0;entryDx=0;entryDy=0;" edge="1" parent="1" source="01UZy1xviZBcJ6pQUZVD-20" target="01UZy1xviZBcJ6pQUZVD-21">
          <mxGeometry relative="1" as="geometry" />
        </mxCell>
        <mxCell id="01UZy1xviZBcJ6pQUZVD-20" value="retireODT()" style="strokeWidth=2;html=1;shape=mxgraph.flowchart.terminator;whiteSpace=wrap;" vertex="1" parent="1">
          <mxGeometry x="610" y="260" width="100" height="60" as="geometry" />
        </mxCell>
        <mxCell id="01UZy1xviZBcJ6pQUZVD-28" style="edgeStyle=orthogonalEdgeStyle;rounded=0;orthogonalLoop=1;jettySize=auto;html=1;entryX=0.5;entryY=0;entryDx=0;entryDy=0;" edge="1" parent="1" source="01UZy1xviZBcJ6pQUZVD-21" target="01UZy1xviZBcJ6pQUZVD-22">
          <mxGeometry relative="1" as="geometry" />
        </mxCell>
        <mxCell id="01UZy1xviZBcJ6pQUZVD-21" value="input savingsAtRetire" style="shape=parallelogram;perimeter=parallelogramPerimeter;whiteSpace=wrap;html=1;fixedSize=1;" vertex="1" parent="1">
          <mxGeometry x="585" y="340" width="150" height="30" as="geometry" />
        </mxCell>
        <mxCell id="01UZy1xviZBcJ6pQUZVD-38" style="edgeStyle=orthogonalEdgeStyle;rounded=0;orthogonalLoop=1;jettySize=auto;html=1;entryX=0.5;entryY=0;entryDx=0;entryDy=0;" edge="1" parent="1" source="01UZy1xviZBcJ6pQUZVD-22" target="01UZy1xviZBcJ6pQUZVD-37">
          <mxGeometry relative="1" as="geometry" />
        </mxCell>
        <mxCell id="01UZy1xviZBcJ6pQUZVD-22" value="input yearCount" style="shape=parallelogram;perimeter=parallelogramPerimeter;whiteSpace=wrap;html=1;fixedSize=1;" vertex="1" parent="1">
          <mxGeometry x="595" y="395" width="130" height="30" as="geometry" />
        </mxCell>
        <mxCell id="01UZy1xviZBcJ6pQUZVD-30" style="edgeStyle=orthogonalEdgeStyle;rounded=0;orthogonalLoop=1;jettySize=auto;html=1;entryX=0;entryY=0.5;entryDx=0;entryDy=0;" edge="1" parent="1" source="01UZy1xviZBcJ6pQUZVD-23" target="01UZy1xviZBcJ6pQUZVD-25">
          <mxGeometry relative="1" as="geometry" />
        </mxCell>
        <mxCell id="01UZy1xviZBcJ6pQUZVD-23" value="yearCount&lt;div&gt;&amp;nbsp;&amp;gt; 0&lt;/div&gt;" style="rhombus;whiteSpace=wrap;html=1;" vertex="1" parent="1">
          <mxGeometry x="610" y="545" width="100" height="95" as="geometry" />
        </mxCell>
        <mxCell id="01UZy1xviZBcJ6pQUZVD-24" value="return" style="strokeWidth=2;html=1;shape=mxgraph.flowchart.terminator;whiteSpace=wrap;" vertex="1" parent="1">
          <mxGeometry x="610" y="670" width="100" height="60" as="geometry" />
        </mxCell>
        <mxCell id="01UZy1xviZBcJ6pQUZVD-31" style="edgeStyle=orthogonalEdgeStyle;rounded=0;orthogonalLoop=1;jettySize=auto;html=1;entryX=0;entryY=0.5;entryDx=0;entryDy=0;" edge="1" parent="1" source="01UZy1xviZBcJ6pQUZVD-25" target="01UZy1xviZBcJ6pQUZVD-26">
          <mxGeometry relative="1" as="geometry" />
        </mxCell>
        <mxCell id="01UZy1xviZBcJ6pQUZVD-25" value="yearCount = yearCount -1&lt;div&gt;yearsRetired = yearsRetired + 1&lt;/div&gt;" style="rounded=0;whiteSpace=wrap;html=1;" vertex="1" parent="1">
          <mxGeometry x="730" y="562.5" width="180" height="60" as="geometry" />
        </mxCell>
        <mxCell id="01UZy1xviZBcJ6pQUZVD-35" style="edgeStyle=orthogonalEdgeStyle;rounded=0;orthogonalLoop=1;jettySize=auto;html=1;entryX=0;entryY=0.5;entryDx=0;entryDy=0;" edge="1" parent="1" source="01UZy1xviZBcJ6pQUZVD-26" target="01UZy1xviZBcJ6pQUZVD-34">
          <mxGeometry relative="1" as="geometry" />
        </mxCell>
        <mxCell id="01UZy1xviZBcJ6pQUZVD-26" value="savingsAtRetire = savingsAtRetire - 60000" style="rounded=0;whiteSpace=wrap;html=1;" vertex="1" parent="1">
          <mxGeometry x="940" y="562.5" width="150" height="60" as="geometry" />
        </mxCell>
        <mxCell id="01UZy1xviZBcJ6pQUZVD-32" style="edgeStyle=orthogonalEdgeStyle;rounded=0;orthogonalLoop=1;jettySize=auto;html=1;entryX=0.5;entryY=0;entryDx=0;entryDy=0;entryPerimeter=0;" edge="1" parent="1" source="01UZy1xviZBcJ6pQUZVD-23" target="01UZy1xviZBcJ6pQUZVD-24">
          <mxGeometry relative="1" as="geometry" />
        </mxCell>
        <mxCell id="01UZy1xviZBcJ6pQUZVD-34" value="savingsAtRetire =&amp;nbsp;&lt;div&gt;savingsAtRetire + (savingsAtRetire * 0.03)&lt;/div&gt;" style="rounded=0;whiteSpace=wrap;html=1;" vertex="1" parent="1">
          <mxGeometry x="1115" y="562.5" width="160" height="60" as="geometry" />
        </mxCell>
        <mxCell id="01UZy1xviZBcJ6pQUZVD-39" style="edgeStyle=orthogonalEdgeStyle;rounded=0;orthogonalLoop=1;jettySize=auto;html=1;entryX=0.5;entryY=0;entryDx=0;entryDy=0;" edge="1" parent="1" source="01UZy1xviZBcJ6pQUZVD-37" target="01UZy1xviZBcJ6pQUZVD-23">
          <mxGeometry relative="1" as="geometry" />
        </mxCell>
        <mxCell id="01UZy1xviZBcJ6pQUZVD-37" value="input yearsRetired" style="shape=parallelogram;perimeter=parallelogramPerimeter;whiteSpace=wrap;html=1;fixedSize=1;" vertex="1" parent="1">
          <mxGeometry x="592.5" y="455" width="135" height="30" as="geometry" />
        </mxCell>
        <mxCell id="01UZy1xviZBcJ6pQUZVD-47" value="output yearsRetired, savingsAtRetire" style="shape=parallelogram;perimeter=parallelogramPerimeter;whiteSpace=wrap;html=1;fixedSize=1;" vertex="1" parent="1">
          <mxGeometry x="220" y="522.5" width="150" height="40" as="geometry" />
        </mxCell>
        <mxCell id="01UZy1xviZBcJ6pQUZVD-50" style="edgeStyle=orthogonalEdgeStyle;rounded=0;orthogonalLoop=1;jettySize=auto;html=1;" edge="1" parent="1" source="01UZy1xviZBcJ6pQUZVD-48">
          <mxGeometry relative="1" as="geometry">
            <mxPoint x="660" y="517.5" as="targetPoint" />
          </mxGeometry>
        </mxCell>
        <mxCell id="01UZy1xviZBcJ6pQUZVD-48" value="output yearCount" style="shape=parallelogram;perimeter=parallelogramPerimeter;whiteSpace=wrap;html=1;fixedSize=1;" vertex="1" parent="1">
          <mxGeometry x="945" y="500" width="140" height="35" as="geometry" />
        </mxCell>
        <mxCell id="01UZy1xviZBcJ6pQUZVD-49" value="" style="edgeStyle=elbowEdgeStyle;elbow=horizontal;endArrow=classic;html=1;curved=0;rounded=0;endSize=8;startSize=8;exitX=1;exitY=0.5;exitDx=0;exitDy=0;entryX=1;entryY=0.5;entryDx=0;entryDy=0;" edge="1" parent="1" source="01UZy1xviZBcJ6pQUZVD-34" target="01UZy1xviZBcJ6pQUZVD-48">
          <mxGeometry width="50" height="50" relative="1" as="geometry">
            <mxPoint x="1330" y="600" as="sourcePoint" />
            <mxPoint x="1380" y="550" as="targetPoint" />
            <Array as="points">
              <mxPoint x="1300" y="550" />
            </Array>
          </mxGeometry>
        </mxCell>
        <mxCell id="01UZy1xviZBcJ6pQUZVD-52" value="" style="edgeStyle=elbowEdgeStyle;elbow=horizontal;endArrow=classic;html=1;curved=0;rounded=0;endSize=8;startSize=8;exitX=1;exitY=0.5;exitDx=0;exitDy=0;" edge="1" parent="1" source="01UZy1xviZBcJ6pQUZVD-47">
          <mxGeometry width="50" height="50" relative="1" as="geometry">
            <mxPoint x="460" y="530" as="sourcePoint" />
            <mxPoint x="140" y="370" as="targetPoint" />
            <Array as="points">
              <mxPoint x="400" y="510" />
            </Array>
          </mxGeometry>
        </mxCell>
        <mxCell id="01UZy1xviZBcJ6pQUZVD-55" style="edgeStyle=orthogonalEdgeStyle;rounded=0;orthogonalLoop=1;jettySize=auto;html=1;entryX=0.5;entryY=0;entryDx=0;entryDy=0;" edge="1" parent="1" source="01UZy1xviZBcJ6pQUZVD-54" target="01UZy1xviZBcJ6pQUZVD-17">
          <mxGeometry relative="1" as="geometry" />
        </mxCell>
        <mxCell id="01UZy1xviZBcJ6pQUZVD-54" value="endOfJob()" style="strokeWidth=2;html=1;shape=mxgraph.flowchart.terminator;whiteSpace=wrap;" vertex="1" parent="1">
          <mxGeometry x="415" y="562.5" width="100" height="60" as="geometry" />
        </mxCell>
        <mxCell id="01UZy1xviZBcJ6pQUZVD-56" value="return" style="strokeWidth=2;html=1;shape=mxgraph.flowchart.terminator;whiteSpace=wrap;" vertex="1" parent="1">
          <mxGeometry x="415" y="710" width="100" height="60" as="geometry" />
        </mxCell>
        <mxCell id="01UZy1xviZBcJ6pQUZVD-57" style="edgeStyle=orthogonalEdgeStyle;rounded=0;orthogonalLoop=1;jettySize=auto;html=1;entryX=0.5;entryY=0;entryDx=0;entryDy=0;entryPerimeter=0;" edge="1" parent="1" source="01UZy1xviZBcJ6pQUZVD-17" target="01UZy1xviZBcJ6pQUZVD-56">
          <mxGeometry relative="1" as="geometry" />
        </mxCell>
        <mxCell id="01UZy1xviZBcJ6pQUZVD-58" value="endOfJob()" style="rounded=0;whiteSpace=wrap;html=1;" vertex="1" parent="1">
          <mxGeometry x="80" y="572.5" width="120" height="60" as="geometry" />
        </mxCell>
        <mxCell id="01UZy1xviZBcJ6pQUZVD-59" value="" style="rounded=0;whiteSpace=wrap;html=1;" vertex="1" parent="1">
          <mxGeometry x="80" y="562.5" width="120" height="10" as="geometry" />
        </mxCell>
        <mxCell id="01UZy1xviZBcJ6pQUZVD-62" value="stop" style="strokeWidth=2;html=1;shape=mxgraph.flowchart.terminator;whiteSpace=wrap;" vertex="1" parent="1">
          <mxGeometry x="90" y="680" width="100" height="60" as="geometry" />
        </mxCell>
        <mxCell id="01UZy1xviZBcJ6pQUZVD-63" style="edgeStyle=orthogonalEdgeStyle;rounded=0;orthogonalLoop=1;jettySize=auto;html=1;entryX=0.5;entryY=0;entryDx=0;entryDy=0;entryPerimeter=0;" edge="1" parent="1" source="01UZy1xviZBcJ6pQUZVD-58" target="01UZy1xviZBcJ6pQUZVD-62">
          <mxGeometry relative="1" as="geometry" />
        </mxCell>
      </root>
    </mxGraphModel>
  </diagram>
</mxfile>
